<mxfile host="app.diagrams.net" modified="2020-07-26T04:49:42.026Z" agent="5.0 (Windows NT 10.0; Win64; x64) AppleWebKit/537.36 (KHTML, like Gecko) Chrome/84.0.4147.89 Safari/537.36" etag="fh3CAxAFdPwlLxlcMxbZ" version="13.5.3" type="github">
  <diagram id="-865ca0yEg2mXqJmYH0A" name="Page-1">
    <mxGraphModel dx="868" dy="492" grid="1" gridSize="10" guides="1" tooltips="1" connect="1" arrows="1" fold="1" page="1" pageScale="1" pageWidth="827" pageHeight="1169" math="0" shadow="0">
      <root>
        <mxCell id="0" />
        <mxCell id="1" parent="0" />
        <mxCell id="s-TTZlRLfod4BVFmJVwi-1" value="Procedimiento para subir una fotografía a Instagram" style="rounded=1;whiteSpace=wrap;html=1;arcSize=25;" vertex="1" parent="1">
          <mxGeometry x="280" y="40" width="260" height="60" as="geometry" />
        </mxCell>
        <mxCell id="s-TTZlRLfod4BVFmJVwi-2" value="" style="endArrow=classic;html=1;exitX=0.5;exitY=1;exitDx=0;exitDy=0;strokeWidth=3;entryX=0.5;entryY=0;entryDx=0;entryDy=0;" edge="1" parent="1" source="s-TTZlRLfod4BVFmJVwi-1" target="s-TTZlRLfod4BVFmJVwi-3">
          <mxGeometry width="50" height="50" relative="1" as="geometry">
            <mxPoint x="390" y="220" as="sourcePoint" />
            <mxPoint x="410" y="160" as="targetPoint" />
          </mxGeometry>
        </mxCell>
        <mxCell id="s-TTZlRLfod4BVFmJVwi-5" value="" style="edgeStyle=orthogonalEdgeStyle;rounded=0;orthogonalLoop=1;jettySize=auto;html=1;strokeWidth=3;" edge="1" parent="1" source="s-TTZlRLfod4BVFmJVwi-3" target="s-TTZlRLfod4BVFmJVwi-4">
          <mxGeometry relative="1" as="geometry" />
        </mxCell>
        <mxCell id="s-TTZlRLfod4BVFmJVwi-3" value="Buscar la aplicación de Instagram en el celular." style="rounded=0;whiteSpace=wrap;html=1;" vertex="1" parent="1">
          <mxGeometry x="300" y="150" width="220" height="40" as="geometry" />
        </mxCell>
        <mxCell id="s-TTZlRLfod4BVFmJVwi-4" value="Seleccionar la aplicación" style="rounded=0;whiteSpace=wrap;html=1;" vertex="1" parent="1">
          <mxGeometry x="350" y="220" width="120" height="60" as="geometry" />
        </mxCell>
        <mxCell id="s-TTZlRLfod4BVFmJVwi-8" value="" style="edgeStyle=orthogonalEdgeStyle;rounded=0;orthogonalLoop=1;jettySize=auto;html=1;strokeWidth=3;" edge="1" parent="1" source="s-TTZlRLfod4BVFmJVwi-6" target="s-TTZlRLfod4BVFmJVwi-7">
          <mxGeometry relative="1" as="geometry" />
        </mxCell>
        <mxCell id="s-TTZlRLfod4BVFmJVwi-9" style="edgeStyle=orthogonalEdgeStyle;rounded=0;orthogonalLoop=1;jettySize=auto;html=1;exitX=0.5;exitY=0;exitDx=0;exitDy=0;entryX=0.5;entryY=1;entryDx=0;entryDy=0;strokeWidth=3;" edge="1" parent="1" source="s-TTZlRLfod4BVFmJVwi-6" target="s-TTZlRLfod4BVFmJVwi-4">
          <mxGeometry relative="1" as="geometry" />
        </mxCell>
        <mxCell id="s-TTZlRLfod4BVFmJVwi-11" value="" style="edgeStyle=orthogonalEdgeStyle;rounded=0;orthogonalLoop=1;jettySize=auto;html=1;strokeWidth=3;" edge="1" parent="1" source="s-TTZlRLfod4BVFmJVwi-6" target="s-TTZlRLfod4BVFmJVwi-10">
          <mxGeometry relative="1" as="geometry" />
        </mxCell>
        <mxCell id="s-TTZlRLfod4BVFmJVwi-6" value="Iniciar sesión en Instagram" style="rhombus;whiteSpace=wrap;html=1;" vertex="1" parent="1">
          <mxGeometry x="345" y="300" width="130" height="80" as="geometry" />
        </mxCell>
        <mxCell id="s-TTZlRLfod4BVFmJVwi-7" value="Cuenta de Facebook" style="whiteSpace=wrap;html=1;" vertex="1" parent="1">
          <mxGeometry x="190" y="310" width="120" height="60" as="geometry" />
        </mxCell>
        <mxCell id="s-TTZlRLfod4BVFmJVwi-10" value="Cuenta local" style="whiteSpace=wrap;html=1;" vertex="1" parent="1">
          <mxGeometry x="510" y="310" width="120" height="60" as="geometry" />
        </mxCell>
        <mxCell id="s-TTZlRLfod4BVFmJVwi-12" value="SI" style="text;html=1;align=center;verticalAlign=middle;resizable=0;points=[];autosize=1;" vertex="1" parent="1">
          <mxGeometry x="325" y="310" width="30" height="20" as="geometry" />
        </mxCell>
        <mxCell id="s-TTZlRLfod4BVFmJVwi-13" value="NO" style="text;html=1;align=center;verticalAlign=middle;resizable=0;points=[];autosize=1;" vertex="1" parent="1">
          <mxGeometry x="475" y="310" width="30" height="20" as="geometry" />
        </mxCell>
        <mxCell id="s-TTZlRLfod4BVFmJVwi-14" value="" style="endArrow=classic;startArrow=classic;html=1;strokeWidth=3;exitX=0.5;exitY=1;exitDx=0;exitDy=0;entryX=0.5;entryY=1;entryDx=0;entryDy=0;" edge="1" parent="1" source="s-TTZlRLfod4BVFmJVwi-7" target="s-TTZlRLfod4BVFmJVwi-10">
          <mxGeometry width="50" height="50" relative="1" as="geometry">
            <mxPoint x="315" y="460" as="sourcePoint" />
            <mxPoint x="510" y="460" as="targetPoint" />
            <Array as="points">
              <mxPoint x="410" y="460" />
            </Array>
          </mxGeometry>
        </mxCell>
        <mxCell id="s-TTZlRLfod4BVFmJVwi-17" style="edgeStyle=orthogonalEdgeStyle;rounded=0;orthogonalLoop=1;jettySize=auto;html=1;exitX=0.5;exitY=0;exitDx=0;exitDy=0;strokeWidth=3;" edge="1" parent="1" source="s-TTZlRLfod4BVFmJVwi-15">
          <mxGeometry relative="1" as="geometry">
            <mxPoint x="410" y="460" as="targetPoint" />
          </mxGeometry>
        </mxCell>
        <mxCell id="s-TTZlRLfod4BVFmJVwi-15" value="Seleccionar la opción de agregar contenido en el encabezado de la app" style="rounded=0;whiteSpace=wrap;html=1;" vertex="1" parent="1">
          <mxGeometry x="342.5" y="480" width="135" height="60" as="geometry" />
        </mxCell>
        <mxCell id="s-TTZlRLfod4BVFmJVwi-18" value="" style="endArrow=classic;html=1;strokeWidth=3;exitX=0.5;exitY=1;exitDx=0;exitDy=0;entryX=0.5;entryY=0;entryDx=0;entryDy=0;" edge="1" parent="1" source="s-TTZlRLfod4BVFmJVwi-15" target="s-TTZlRLfod4BVFmJVwi-20">
          <mxGeometry width="50" height="50" relative="1" as="geometry">
            <mxPoint x="414" y="620" as="sourcePoint" />
            <mxPoint x="411" y="578" as="targetPoint" />
          </mxGeometry>
        </mxCell>
        <mxCell id="s-TTZlRLfod4BVFmJVwi-22" value="" style="edgeStyle=orthogonalEdgeStyle;rounded=0;orthogonalLoop=1;jettySize=auto;html=1;strokeWidth=3;" edge="1" parent="1" source="s-TTZlRLfod4BVFmJVwi-20" target="s-TTZlRLfod4BVFmJVwi-21">
          <mxGeometry relative="1" as="geometry" />
        </mxCell>
        <mxCell id="s-TTZlRLfod4BVFmJVwi-24" value="" style="edgeStyle=orthogonalEdgeStyle;rounded=0;orthogonalLoop=1;jettySize=auto;html=1;strokeWidth=3;" edge="1" parent="1" source="s-TTZlRLfod4BVFmJVwi-20" target="s-TTZlRLfod4BVFmJVwi-23">
          <mxGeometry relative="1" as="geometry" />
        </mxCell>
        <mxCell id="s-TTZlRLfod4BVFmJVwi-25" value="" style="edgeStyle=orthogonalEdgeStyle;rounded=0;orthogonalLoop=1;jettySize=auto;html=1;strokeWidth=3;" edge="1" parent="1" source="s-TTZlRLfod4BVFmJVwi-20" target="s-TTZlRLfod4BVFmJVwi-23">
          <mxGeometry relative="1" as="geometry" />
        </mxCell>
        <mxCell id="s-TTZlRLfod4BVFmJVwi-29" value="" style="edgeStyle=orthogonalEdgeStyle;rounded=0;orthogonalLoop=1;jettySize=auto;html=1;strokeWidth=3;" edge="1" parent="1" source="s-TTZlRLfod4BVFmJVwi-20" target="s-TTZlRLfod4BVFmJVwi-28">
          <mxGeometry relative="1" as="geometry" />
        </mxCell>
        <mxCell id="s-TTZlRLfod4BVFmJVwi-20" value="Seleccionar el tipo de historia" style="rhombus;whiteSpace=wrap;html=1;" vertex="1" parent="1">
          <mxGeometry x="335" y="585" width="155" height="95" as="geometry" />
        </mxCell>
        <mxCell id="s-TTZlRLfod4BVFmJVwi-21" value="Fotografía" style="whiteSpace=wrap;html=1;" vertex="1" parent="1">
          <mxGeometry x="530" y="622.5" width="90" height="20" as="geometry" />
        </mxCell>
        <mxCell id="s-TTZlRLfod4BVFmJVwi-23" value="vídeo corto" style="whiteSpace=wrap;html=1;" vertex="1" parent="1">
          <mxGeometry x="220" y="608.75" width="60" height="47.5" as="geometry" />
        </mxCell>
        <mxCell id="s-TTZlRLfod4BVFmJVwi-33" value="" style="edgeStyle=orthogonalEdgeStyle;rounded=0;orthogonalLoop=1;jettySize=auto;html=1;strokeWidth=3;" edge="1" parent="1" source="s-TTZlRLfod4BVFmJVwi-28" target="s-TTZlRLfod4BVFmJVwi-32">
          <mxGeometry relative="1" as="geometry" />
        </mxCell>
        <mxCell id="s-TTZlRLfod4BVFmJVwi-28" value="seleccionar música para el contenido" style="rhombus;whiteSpace=wrap;html=1;" vertex="1" parent="1">
          <mxGeometry x="317.5" y="710" width="190" height="130" as="geometry" />
        </mxCell>
        <mxCell id="s-TTZlRLfod4BVFmJVwi-30" value="opcional para el usuario" style="rounded=0;whiteSpace=wrap;html=1;" vertex="1" parent="1">
          <mxGeometry x="180" y="820" width="120" height="60" as="geometry" />
        </mxCell>
        <mxCell id="s-TTZlRLfod4BVFmJVwi-31" value="" style="endArrow=classic;html=1;strokeWidth=3;exitX=0;exitY=0.5;exitDx=0;exitDy=0;entryX=0.5;entryY=0;entryDx=0;entryDy=0;" edge="1" parent="1" source="s-TTZlRLfod4BVFmJVwi-28" target="s-TTZlRLfod4BVFmJVwi-30">
          <mxGeometry width="50" height="50" relative="1" as="geometry">
            <mxPoint x="160" y="740" as="sourcePoint" />
            <mxPoint x="210" y="690" as="targetPoint" />
          </mxGeometry>
        </mxCell>
        <mxCell id="s-TTZlRLfod4BVFmJVwi-35" value="" style="edgeStyle=orthogonalEdgeStyle;rounded=0;orthogonalLoop=1;jettySize=auto;html=1;strokeWidth=3;" edge="1" parent="1" source="s-TTZlRLfod4BVFmJVwi-32" target="s-TTZlRLfod4BVFmJVwi-34">
          <mxGeometry relative="1" as="geometry" />
        </mxCell>
        <mxCell id="s-TTZlRLfod4BVFmJVwi-32" value="Colocar filtros de diseño" style="whiteSpace=wrap;html=1;" vertex="1" parent="1">
          <mxGeometry x="550" y="745" width="90" height="45" as="geometry" />
        </mxCell>
        <mxCell id="s-TTZlRLfod4BVFmJVwi-34" value="Proseguir a la publicación de la historia en Instagram" style="whiteSpace=wrap;html=1;" vertex="1" parent="1">
          <mxGeometry x="660" y="525" width="210" height="60" as="geometry" />
        </mxCell>
      </root>
    </mxGraphModel>
  </diagram>
</mxfile>
